<svg xmlns="http://www.w3.org/2000/svg" fill-rule="evenodd" viewBox="0 0 100 100">
    <path d="M71.07 39.27 50.61 24.91a1.5 1.5 0 0 0-1.74 0L28.92 39.28A1.5 1.5 0 0 0 29.8 42H33v27.5a1.5 1.5 0 0 0 1.5 1.5h31a1.5 1.5 0 0 0 1.5-1.5V42h3.21a1.5 1.5 0 0 0 .86-2.73ZM64 40.5V68H36V40.5a1.5 1.5 0 0 0-1.5-1.5h-.05l15.31-11 15.7 11A1.5 1.5 0 0 0 64 40.5Z"/>
    <path d="M43 45.5v12a1.5 1.5 0 0 0 1.5 1.5h12a1.5 1.5 0 0 0 1.5-1.5v-12a1.5 1.5 0 0 0-1.5-1.5h-12a1.5 1.5 0 0 0-1.5 1.5Zm3 1.5h9v9h-9Z"/>
    <path d="M84.26 21.57a1.5 1.5 0 0 0-.48-1.07 1.52 1.52 0 0 0-1.1-.4C57.91 21.51 51.93 4.74 51.69 4a1.5 1.5 0 0 0-1.42-1h-.54a1.51 1.51 0 0 0-1.42 1c-.24.71-6.24 17.49-31 16.09a1.5 1.5 0 0 0-1.58 1.46c0 .89-.53 21.93 0 29.16C16.87 66 21.63 83.4 48.32 95.86A1.49 1.49 0 0 0 49 96h2a1.49 1.49 0 0 0 .63-.14C78.37 83.4 83.13 66 84.26 50.73c.53-7.23.02-28.27 0-29.16Zm-3 28.93C80.2 64.9 75.73 81.2 50.71 93h-1.42c-25-11.8-29.49-28.1-30.56-42.49-.44-6-.14-22.26 0-27.33h1.45c19 0 27.12-10.75 29.85-15.74 2.79 5.11 11.2 16.27 31.3 15.72.08 5.08.38 21.37-.06 27.34Z"/>
</svg>
