<svg xmlns="http://www.w3.org/2000/svg" fill-rule="evenodd" viewBox="0 0 100 100">
    <path d="M89.5 40.5A1.5 1.5 0 0 0 88 39h-6.87l1.34-7.23A1.5 1.5 0 0 0 81 30H49.41a1.49 1.49 0 0 0 .09-.5 12.5 12.5 0 0 0-25 0 1.49 1.49 0 0 0 .09.5H19a1.5 1.5 0 0 0-1.48 1.76L18.79 39H12a1.5 1.5 0 0 0-1.5 1.5 38 38 0 0 0 13.61 29l4.22 24.22A1.5 1.5 0 0 0 29.81 95h39.66a1.5 1.5 0 0 0 1.47-1.23L75.37 70A38 38 0 0 0 89.5 40.5Zm-62-11a9.5 9.5 0 0 1 19 0 1.49 1.49 0 0 0 .09.5H27.41a1.49 1.49 0 0 0 .09-.5ZM79.2 33l-6.58 35.34a37.21 37.21 0 0 1-45.74-.4L20.78 33Zm-65.67 9h5.78l3.95 22.62A34.88 34.88 0 0 1 13.53 42Zm54.69 50H31.08l-3.46-19.8a40.24 40.24 0 0 0 44.21.36Zm8.05-26.89L80.57 42h5.9a34.91 34.91 0 0 1-10.2 23.11ZM58 19.5a8.5 8.5 0 1 0-8.5-8.5 8.51 8.51 0 0 0 8.5 8.5Zm0-14a5.5 5.5 0 1 1-5.5 5.5A5.51 5.51 0 0 1 58 5.5Zm16 21a5.5 5.5 0 1 0-5.5-5.5 5.51 5.51 0 0 0 5.5 5.5Zm0-8a2.5 2.5 0 1 1-2.5 2.5 2.5 2.5 0 0 1 2.5-2.5Z"/>
</svg>
