<svg xmlns="http://www.w3.org/2000/svg" fill-rule="evenodd" viewBox="0 0 100 100">
    <path d="M95.552 35.176a1.501 1.501 0 0 0-1.211-1.021L64.718 29.85 51.47 3.007a1.499 1.499 0 0 0-2.69 0L35.532 29.85 5.909 34.155a1.501 1.501 0 0 0-.831 2.559l21.435 20.894-5.06 29.502a1.503 1.503 0 0 0 1.479 1.754c.239 0 .479-.057.698-.172l26.495-13.93 26.495 13.93a1.5 1.5 0 0 0 2.177-1.582l-5.061-29.502 21.436-20.894a1.5 1.5 0 0 0 .38-1.538zM71.078 56.01a1.5 1.5 0 0 0-.432 1.328l4.68 27.284L50.823 71.74a1.504 1.504 0 0 0-1.396 0L24.924 84.622l4.679-27.284a1.502 1.502 0 0 0-.432-1.328L9.349 36.687l27.395-3.981a1.5 1.5 0 0 0 1.129-.82L50.125 7.06l12.252 24.825c.218.442.641.75 1.129.82l27.396 3.981L71.078 56.01z"/>
    <path d="M51.47 26.095a1.499 1.499 0 0 0-2.69 0l-6.059 12.276-13.548 1.969a1.501 1.501 0 0 0-.831 2.559l9.803 9.556-2.313 13.492a1.503 1.503 0 0 0 1.479 1.754c.239 0 .479-.057.698-.172l12.117-6.37 12.117 6.37a1.5 1.5 0 0 0 2.177-1.582l-2.314-13.492 9.804-9.556a1.501 1.501 0 0 0-.831-2.559l-13.548-1.969-6.061-12.276zm7.976 24.761a1.5 1.5 0 0 0-.432 1.328l1.934 11.274-10.125-5.323a1.504 1.504 0 0 0-1.396 0l-10.125 5.323 1.933-11.274a1.502 1.502 0 0 0-.432-1.328l-8.191-7.984 11.32-1.645a1.5 1.5 0 0 0 1.129-.82l5.063-10.258 5.063 10.258c.218.442.641.75 1.129.82l11.32 1.645-8.19 7.984z"/>
</svg>
