<svg xmlns="http://www.w3.org/2000/svg" fill-rule="evenodd" viewBox="0 0 100 100">
    <path d="M85.5 62a1.5 1.5 0 0 1-1.5-1.5V48h-8.25a1.5 1.5 0 0 1 0-3h9.75a1.5 1.5 0 0 1 1.5 1.5v14a1.5 1.5 0 0 1-1.5 1.5Z"/>
    <path d="M85.5 76H77a1.5 1.5 0 0 1 0-3h7V62h-6.34a1.5 1.5 0 0 1 0-3h7.84a1.5 1.5 0 0 1 1.5 1.5v14a1.5 1.5 0 0 1-1.5 1.5Z"/>
    <path d="M85.5 90H74.07a1.5 1.5 0 0 1 0-3H84V74.5a1.5 1.5 0 0 1 3 0v14a1.5 1.5 0 0 1-1.5 1.5Zm-57-28a8.5 8.5 0 0 1 0-17h17a1.5 1.5 0 0 1 0 3h-17a5.5 5.5 0 0 0 0 11 1.5 1.5 0 0 1 0 3Zm57-14a1.5 1.5 0 0 1-1.5-1.5V26h-7a1.5 1.5 0 0 1 0-3h8.5a1.5 1.5 0 0 1 1.5 1.5v22a1.5 1.5 0 0 1-1.5 1.5ZM31 26h-2.5a1.5 1.5 0 0 1 0-3H31a1.5 1.5 0 0 1 0 3Z"/>
    <path d="M28.5 76a8.5 8.5 0 0 1 0-17h19a1.5 1.5 0 0 1 0 3h-19a5.5 5.5 0 0 0 0 11 1.5 1.5 0 0 1 0 3Z"/>
    <path d="M47.13 90H28.5a8.5 8.5 0 0 1 0-17h18.63a1.5 1.5 0 0 1 0 3H28.5a5.5 5.5 0 0 0 0 11h18.63a1.5 1.5 0 0 1 0 3Zm27.2-73H43.5a1.5 1.5 0 0 1-1.5-1.5v-10A1.5 1.5 0 0 1 43.5 4h18.67c8.13 0 12.45 7.24 13.6 11.07A1.5 1.5 0 0 1 74.33 17ZM45 14h27.1c-1.29-2.63-4.29-7-9.94-7H45Z"/>
    <path d="M65.5 26h-9a1.5 1.5 0 0 1-1.5-1.5v-9a1.5 1.5 0 0 1 1.5-1.5h9a1.5 1.5 0 0 1 1.5 1.5v9a1.5 1.5 0 0 1-1.5 1.5ZM58 23h6v-6h-6Zm-14.5-6h-7a1.5 1.5 0 0 1-1.5-1.5v-7A1.5 1.5 0 0 1 36.5 7h7A1.5 1.5 0 0 1 45 8.5v7a1.5 1.5 0 0 1-1.5 1.5ZM38 14h4v-4h-4Z"/>
    <path d="M36.92 39a1.5 1.5 0 0 1-1.08-.49l-1.67-1.85a1.5 1.5 0 0 1-.17-1.82l8-12.4V15.5a1.5 1.5 0 0 1 1.5-1.5h6a1.5 1.5 0 0 1 1.5 1.5v9.23a1.5 1.5 0 0 1-.43 1.05L38 38.55a1.5 1.5 0 0 1-1.08.45ZM45 17v5.88a1.5 1.5 0 0 1-.24.81l-7 10.76L48 24.12V17Zm-1.5 5.88ZM72.5 96h-25a1.5 1.5 0 0 1-1.5-1.5V61.57A6.46 6.46 0 0 1 47.9 57l10.16-10.18a3.49 3.49 0 0 0 .75-3.82l-5.43-12.9a1.5 1.5 0 0 1 0-1.16l2.07-5a1.5 1.5 0 0 1 1.38-.94h8.33a1.5 1.5 0 0 1 1.17.57c.4.49 9.67 12.33 12.67 35.74 1.23 9.52-4.77 34.49-5 35.54A1.5 1.5 0 0 1 72.5 96ZM49 93h22.31C72.48 87.94 77 67.57 76 59.69 73.46 39.9 66.22 28.58 64.41 26h-6.58l-1.45 3.5 5.19 12.32a6.47 6.47 0 0 1-1.39 7.12L50 59.1a3.48 3.48 0 0 0-1 2.48ZM21.5 55a1.5 1.5 0 0 1-1.5-1.5v-22a8.51 8.51 0 0 1 8.5-8.5 1.5 1.5 0 0 1 0 3 5.51 5.51 0 0 0-5.5 5.5v22a1.5 1.5 0 0 1-1.5 1.5Z"/>
    <path d="M62 78a10 10 0 1 1 10-10 10 10 0 0 1-10 10Zm0-17a7 7 0 1 0 7 7 7 7 0 0 0-7-7Z"/>
</svg>
