<svg xmlns="http://www.w3.org/2000/svg" fill-rule="evenodd" viewBox="0 0 100 100">
    <path d="M50 53a33.54 33.54 0 0 0-33.5 33.5A1.5 1.5 0 0 0 18 88h64a1.5 1.5 0 0 0 1.5-1.5A33.54 33.54 0 0 0 50 53Zm12.63 5.75L50 71.38 37.37 58.75a30.43 30.43 0 0 1 25.27 0ZM34.58 60.2l14.36 14.36H49V85H19.54a30.53 30.53 0 0 1 15.04-24.8ZM52 85V73.62L65.42 60.2a30.53 30.53 0 0 1 15 24.8ZM34 39a19.29 19.29 0 0 0 33.2-.94h.09c2.19-1 4.36-4.23 4.63-4.63A12.62 12.62 0 0 0 74 26.17C74 13.39 63.26 3 50.07 3h-.13C36.74 3 26 13.39 26 26.17V31a7.81 7.81 0 0 0 2.37 5.61A8.24 8.24 0 0 0 34 39Zm16.3 6a16.18 16.18 0 0 1-14.79-9.47 2.48 2.48 0 0 1 0-.52l.26-.16c4.66-2.86 10.45-6.43 13.87-9.71 3.71-3.56 7.57-7.87 9.21-9.73A15.93 15.93 0 0 1 66.5 29a16.12 16.12 0 0 1-16.2 16ZM29 26.17C29 15 38.39 6 49.93 6h.13C61.61 6 71 15 71 26.17a9.54 9.54 0 0 1-1.63 5.59l-.09.14a18.93 18.93 0 0 0-10-19.73 1.5 1.5 0 0 0-1.83.35c0 .06-5.06 5.89-9.82 10.45-3.23 3.03-8.87 6.53-13.4 9.32l-.46.28a3.25 3.25 0 0 0-1.26 3.05s0 .07 0 .1a5.22 5.22 0 0 1-2-1.24A4.84 4.84 0 0 1 29 31Z"/>
    <path d="M43.5 76a2.5 2.5 0 1 0 0 5 2.5 2.5 0 1 0 0-5z"/>
</svg>
