<svg xmlns="http://www.w3.org/2000/svg" fill-rule="evenodd" viewBox="0 0 100 100">
    <path d="M46 83a2 2 0 1 0 0 4 2 2 0 1 0 0-4z"/>
    <path d="M71 28.521V12.75c0-2.481-2.019-4.5-4.5-4.5h-40a4.505 4.505 0 0 0-4.5 4.5v76c0 2.481 2.019 4.5 4.5 4.5h40c2.481 0 4.5-2.019 4.5-4.5V53.237c2.854-2.838 5.747-5.74 7.284-7.352 1.755-1.84 2.719-4.322 2.716-6.989-.007-5.586-4.457-10.149-10-10.375zM26.5 11.25h40c.827 0 1.5.673 1.5 1.5v5.5H25v-5.5c0-.827.673-1.5 1.5-1.5zm40 79h-40c-.827 0-1.5-.673-1.5-1.5v-9.5h43v9.5c0 .827-.673 1.5-1.5 1.5zm1.5-14H25v-55h43v7.574a10.38 10.38 0 0 0-6.026 4.245 10.441 10.441 0 0 0-8.581-4.531h-.013c-2.778 0-5.387 1.08-7.348 3.04a10.287 10.287 0 0 0-3.033 7.337c.003 2.654.958 5.121 2.688 6.944 3.679 3.877 14.819 14.753 15.292 15.214a1.495 1.495 0 0 0 2.099-.003c.05-.049 2.2-2.161 4.923-4.856V76.25zm8.112-32.435c-2.983 3.129-11.173 11.211-14.089 14.083-2.932-2.87-11.176-10.959-14.16-14.104-1.2-1.265-1.862-3-1.864-4.884a7.31 7.31 0 0 1 2.154-5.211 7.342 7.342 0 0 1 5.227-2.162h.009a7.432 7.432 0 0 1 7.152 5.481 1.497 1.497 0 0 0 1.455 1.108 1.497 1.497 0 0 0 1.444-1.122 7.368 7.368 0 0 1 7.134-5.505h.009c4.085.005 7.412 3.324 7.417 7.4.002 1.892-.668 3.637-1.888 4.916zm11.257-12.073a1.5 1.5 0 0 0-2.588 1.517 12.589 12.589 0 0 1 1.719 6.34c.004 3.219-1.14 6.197-3.22 8.387a344.87 344.87 0 0 1-4.348 4.461 1.5 1.5 0 1 0 2.135 2.107 349.194 349.194 0 0 0 4.387-4.502c2.614-2.75 4.051-6.464 4.046-10.457a15.582 15.582 0 0 0-2.131-7.853z"/>
</svg>
