<svg xmlns="http://www.w3.org/2000/svg" fill-rule="evenodd" viewBox="0 0 100 100">
    <path d="M60.51 39.28a1.5 1.5 0 0 0 3-.39A23.6 23.6 0 0 0 16.5 42a1.5 1.5 0 0 0 3 0 20.6 20.6 0 0 1 41-2.72ZM45.63 62.85a20.72 20.72 0 0 1-5.15.65 20.42 20.42 0 0 1-17.22-9.32 1.5 1.5 0 1 0-2.52 1.63A23.42 23.42 0 0 0 40.48 66.5a23.72 23.72 0 0 0 5.9-.74 1.5 1.5 0 0 0-.75-2.91Z"/>
    <path d="M91.7 53H87v-6.5a1.5 1.5 0 0 0-1.5-1.5h-30a1.5 1.5 0 0 0-1.5 1.5V75a33.82 33.82 0 0 1-12.77 2.5 34.5 34.5 0 0 1 0-69 33.88 33.88 0 0 1 24.2 10.1 1.5 1.5 0 1 0 2.13-2.11 36.86 36.86 0 0 0-26.33-11 37.5 37.5 0 0 0 0 75A36.81 36.81 0 0 0 54 78.23v5.27a1.5 1.5 0 0 0 1.5 1.5h30a1.5 1.5 0 0 0 1.5-1.5V72h4.7a4.32 4.32 0 0 0 4.3-4.34V57.34A4.32 4.32 0 0 0 91.7 53ZM84 82H57V48h27Zm9-14.34A1.32 1.32 0 0 1 91.7 69H87V56h4.7a1.32 1.32 0 0 1 1.3 1.34Z"/>
    <path d="M65.29 25.31H65a1.5 1.5 0 0 0 0 3h.12a10.75 10.75 0 0 1 10.52 10.48 1.86 1.86 0 0 0 1.63 1.71 1.5 1.5 0 0 0 1.5-1.5 10.31 10.31 0 0 1 9.94-10.61H89a1.5 1.5 0 0 0 0-3 9.78 9.78 0 0 1-7.11-3 10.62 10.62 0 0 1-3-6.75v-.44a1.49 1.49 0 0 0-.08-.45 1.5 1.5 0 0 0-1.47-1.25 1.5 1.5 0 0 0-1.5 1.5v.66C75.68 21 71 25.25 65.29 25.31Zm12.09-4.07a13.51 13.51 0 0 0 2.36 3.26 13.11 13.11 0 0 0 3.16 2.37 13.36 13.36 0 0 0-5.73 6 13.93 13.93 0 0 0-2.65-3.61 13.78 13.78 0 0 0-3.19-2.33 13.47 13.47 0 0 0 6.05-5.69ZM46 44.39A7.86 7.86 0 0 1 40.24 42a8.6 8.6 0 0 1-2.43-5.44v-.37a1.45 1.45 0 0 0-.07-.42 1.5 1.5 0 0 0-1.47-1.25A1.5 1.5 0 0 0 34.78 36v.55a8.42 8.42 0 0 1-8.58 7.78H26a1.5 1.5 0 0 0 0 3h.1a8.71 8.71 0 0 1 8.51 8.48 1.8 1.8 0 0 0 1.61 1.67A1.5 1.5 0 0 0 37.73 56a8.34 8.34 0 0 1 8-8.59H46a1.5 1.5 0 0 0 0-3Zm-9.87 5.93a11.94 11.94 0 0 0-2-2.64A11.75 11.75 0 0 0 31.8 46a11.49 11.49 0 0 0 4.51-4.25 11.5 11.5 0 0 0 1.79 2.39 11.22 11.22 0 0 0 2.3 1.79 11.4 11.4 0 0 0-4.27 4.4Z"/>
</svg>
