<svg xmlns="http://www.w3.org/2000/svg" fill-rule="evenodd" viewBox="0 0 100 100">
    <path d="m91 74.25-9.32-55a1.5 1.5 0 0 0-1.5-1.25H26.5a1.5 1.5 0 0 0 0 3h52.42l2.2 13H50.57C27.77 34 9.21 52.17 9.21 74.5a1.5 1.5 0 0 0 1.5 1.5H89.5a1.5 1.5 0 0 0 1.5-1.75ZM50.57 37h31.06l5 29.5H13.1A38.23 38.23 0 0 1 50.57 37ZM12.24 73c0-1.18.16-2.35.31-3.5h74.58l.59 3.5Z"/>
    <path d="M74 55.5a2.5 2.5 0 1 0 0 5 2.5 2.5 0 1 0 0-5zm-10 0a2.5 2.5 0 1 0 0 5 2.5 2.5 0 1 0 0-5zm-10 0a2.5 2.5 0 1 0 0 5 2.5 2.5 0 1 0 0-5z"/>
</svg>
