<?xml version="1.0" encoding="UTF-8"?> <!-- Generator: Adobe Illustrator 19.0.0, SVG Export Plug-In . SVG Version: 6.00 Build 0) --> <svg xmlns="http://www.w3.org/2000/svg" xmlns:xlink="http://www.w3.org/1999/xlink" id="Layer_1" x="0px" y="0px" viewBox="0 0 511.999 511.999" style="enable-background:new 0 0 511.999 511.999;" xml:space="preserve"> <g> <g> <path d="M346.651,170.769c-0.187-0.069-0.377-0.134-0.569-0.192c-32.524-9.862-54.646-38.639-56.323-71.795 c1.272-0.091,26.132-0.153,26.132-0.153c18.795,0,34.087-15.292,34.087-34.088v-8.279c0-18.796-15.292-34.088-34.087-34.088 h-22.287H145.583c-9.305,0-17.535,5.589-20.967,14.239l-19.711,49.681c-2.76,6.954-1.897,14.802,2.305,20.992 c4.203,6.19,11.179,9.885,18.661,9.885h18.558v65.502h-9.972c-6.259,0-11.335,5.075-11.335,11.335v48.006 c-25.3,17.414-40.77,46.494-40.77,77.417v142.156c0,27.908,22.706,50.614,50.614,50.614H251.51 c27.908,0,50.614-22.706,50.614-50.614V319.23c0-30.924-15.472-60.001-40.775-77.414v-48.008c0-6.26-5.076-11.335-11.335-11.335 h-10.005v-30.25c0-3.178,0.294-6.287,0.827-9.315c7.921,13.454,18.954,24.96,32.408,33.526 c16.138,10.275,34.642,15.61,53.487,15.609c5.96,0,11.956-0.534,17.92-1.614c4.812-0.714,8.511-4.792,8.666-9.767 c0.011-0.102,0.026-0.201,0.026-0.313C353.344,175.95,350.557,172.199,346.651,170.769z M304.939,44.845h10.953 c6.296,0,11.417,5.122,11.417,11.419v8.279c0,6.296-5.122,11.419-11.417,11.419h-10.953V44.845z M246.771,259.34 c20.231,13.056,32.683,35.731,32.683,59.89v142.156c0,15.408-12.536,27.944-27.944,27.944H132.968 c-15.409,0-27.944-12.536-27.944-27.944V319.23c0-24.157,12.45-46.831,32.674-59.89h43.201v194.381 c0,6.26,5.076,11.335,11.335,11.335s11.335-5.074,11.335-11.335V259.34H246.771z M145.792,236.671v-31.528h92.888v31.528h-46.348 c-0.033,0-0.066-0.005-0.099-0.005s-0.066,0.005-0.099,0.005H145.792z M217.341,152.223v30.25h-50.242v-65.614 c0-12.438-10.12-22.557-22.556-22.557l-18.506-0.001l19.622-49.456H282.27V76.8C245.572,82.291,217.341,114.021,217.341,152.223z M284.202,159.225c-15.123-9.629-26.399-23.916-32.264-40.657c4.821-5.955,10.887-10.857,17.802-14.311 c1.646,16.621,7.462,32.777,16.972,46.688c4.049,5.921,8.722,11.364,13.911,16.246 C294.913,165.189,289.401,162.534,284.202,159.225z"></path> </g> </g> <g> <g> <path d="M409.133,3.32c-4.424-4.426-11.602-4.427-16.029-0.001l-7.471,7.47c-4.427,4.426-4.427,11.603-0.001,16.029 c2.214,2.213,5.114,3.32,8.016,3.32c2.901,0,5.801-1.106,8.014-3.319l7.471-7.47C413.559,14.923,413.559,7.746,409.133,3.32z"></path> </g> </g> <g> <g> <path d="M409.132,101.457l-7.471-7.469c-4.425-4.426-11.603-4.426-16.029,0c-4.426,4.426-4.426,11.603,0,16.029l7.472,7.469 c2.213,2.214,5.113,3.32,8.014,3.32s5.802-1.107,8.015-3.32C413.558,113.06,413.558,105.883,409.132,101.457z"></path> </g> </g> <g> <g> <path d="M418.311,49.068h-10.564c-6.259,0-11.335,5.075-11.335,11.335s5.076,11.335,11.335,11.335h10.564 c6.259,0,11.335-5.075,11.335-11.335S424.57,49.068,418.311,49.068z"></path> </g> </g> <g> <g> <path d="M153.67,280.626c-4.428-4.425-11.606-4.425-16.031,0.001c-10.324,10.324-16.009,24.033-16.009,38.601v49.443 c0,6.26,5.076,11.335,11.335,11.335c6.259,0,11.335-5.075,11.335-11.335v-49.443c0-8.513,3.328-16.529,9.37-22.573 C158.096,292.23,158.096,285.053,153.67,280.626z"></path> </g> </g> <g> <g> <path d="M132.964,393.794c-6.259,0-11.335,5.075-11.335,11.335v13.466c0,6.26,5.076,11.335,11.335,11.335 c6.259,0,11.335-5.075,11.335-11.335v-13.466C144.298,398.868,139.223,393.794,132.964,393.794z"></path> </g> </g> <g> </g> <g> </g> <g> </g> <g> </g> <g> </g> <g> </g> <g> </g> <g> </g> <g> </g> <g> </g> <g> </g> <g> </g> <g> </g> <g> </g> <g> </g> </svg> 