<?xml version="1.0" encoding="UTF-8"?> <svg xmlns="http://www.w3.org/2000/svg" id="Слой_2" data-name="Слой 2" viewBox="0 0 1277 632"><defs><style>.cls-1{fill:#171b4a;}.cls-2{fill:#83beff;}.cls-3{fill:#fff;}</style></defs><title>Logo_1_svg_Монтажная область 1</title><path class="cls-1" d="M654.18,513.73v-202h72q28.17,0,45.38,13.8t17.22,38.27a50.44,50.44,0,0,1-6.55,25.61A45.76,45.76,0,0,1,764.3,407v.57q15.93,4.56,24.32,17.93a54.48,54.48,0,0,1,8.4,29.59q0,28.74-19.92,43.67t-49.79,14.94Zm36.71-119.5h35.56q11.67,0,18.35-7.26t6.69-18.64q0-11.08-6.69-18.06t-18.92-7h-35Zm0,87.92h39.26q13.67,0,21.48-8.11t7.83-21.2q0-12.81-7.83-20.91t-21.48-8.11H690.89Z"></path><path class="cls-1" d="M1138.46,513.73V343.3h-66.3V311.71h169V343.3h-66.29V513.73Z"></path><path class="cls-1" d="M642.72,200.9q0-30.19,19.51-50.29t49.7-20.1q31.19,0,49.8,17.84l-7.25,10a58.78,58.78,0,0,0-19.41-11.07,67.83,67.83,0,0,0-22.74-4q-24.71,0-40.1,16.37T656.84,200.7q0,25.11,15.49,42.36t40.58,17.25q25.89,0,44.51-18.23l7.84,9.6q-21.76,21.38-52.74,21.37t-50.39-20.68Q642.72,231.69,642.72,200.9Z"></path><path class="cls-1" d="M792.51,270.7V132.87H806V258.54H870V270.7Z"></path><path class="cls-1" d="M893.88,270.7V132.87h77.45V145H907.41v50.19h52.35v12.16H907.41v51.17h67.64V270.7Z"></path><path class="cls-1" d="M988,270.7l50.59-137.83h14.51l50.58,137.83h-14.31l-15.88-43.92H1018l-15.68,43.92ZM1022.11,215h47.25l-18-50L1046,147h-.39q-2.94,11.58-5.3,18Z"></path><path class="cls-1" d="M1127.59,270.7V132.87h13.14l70.39,99.21,11.37,18.62h.39q-1.17-11.37-1.17-18.62V132.87h13.52V270.7H1222.1l-70.39-99.21-11.37-18.63H1140q1.17,11.38,1.17,18.63V270.7Z"></path><path class="cls-1" d="M1012.71,327.73l-.12-.12c-.49-.44-.91-.94-1.4-1.37a.77.77,0,0,0-.07.16,15.76,15.76,0,0,0-20,24.34l-.16.1A75.38,75.38,0,0,1,1016.21,407a76.21,76.21,0,1,1-127.86-55.73h0a15.78,15.78,0,1,0-21.23-23.12,107.65,107.65,0,1,0,145.6-.4Z"></path><path class="cls-2" d="M445.83,132.55H334.38l-11.6-18.1a17,17,0,0,0-28.13,0l-11.6,18.1H171.17c-29.36,0-52.17,22.83-52.17,52.23v275c0,29.4,22.81,53.24,52.17,53.24H445.83c29.36,0,52.17-23.84,52.17-53.24v-275C498,155.38,475.19,132.55,445.83,132.55Z"></path><circle class="cls-3" cx="187.1" cy="284.22" r="85.88"></circle><circle class="cls-3" cx="186.1" cy="283.22" r="86.9"></circle><circle class="cls-3" cx="431.68" cy="284.22" r="85.88"></circle><circle class="cls-3" cx="431.61" cy="283.85" r="87.39"></circle><path class="cls-1" d="M341.1,579.41h-65a16.19,16.19,0,1,0,0,32.37h65a16.19,16.19,0,1,0,0-32.37Z"></path><path class="cls-1" d="M370.61,530h-124a16.17,16.17,0,0,0-16.18,16.18h0a16.17,16.17,0,0,0,16.18,16.18h124a16.17,16.17,0,0,0,16.18-16.18h0A16.17,16.17,0,0,0,370.61,530Z"></path><path class="cls-1" d="M386.79,411.22c-40.25,24.95-63.58,23.14-78.17,23.14-27.39,0-60.86-12.25-78.72-23.62-12-6.33-22.3,4.09-21.69,13.23.59,8.85,7,12.48,16.59,17.21,31.74,15.68,59,22.28,83.9,22.28,23.66,0,47.08-.56,84.49-22.15,8.75-5,15.82-8.32,15.82-17.93C409,414.5,399,403.68,386.79,411.22Z"></path><path class="cls-1" d="M532.76,229.32H526a109.94,109.94,0,0,0-27.14-31.47V185.09a53.15,53.15,0,0,0-53.11-53.18H353.46c-.43-1.18-24.48-37-30.1-45.35a32.53,32.53,0,1,0-30.21-.33c-5.16,7.67-29.89,44.48-30.32,45.68H171.46a53.15,53.15,0,0,0-53.11,53.18v12.76a109.94,109.94,0,0,0-27.14,31.47H84.87a29.21,29.21,0,0,0-29.21,29.21v54.15a29.21,29.21,0,0,0,29.21,29.21h8.74a110,110,0,0,0,24.74,27.5v90.35a53.14,53.14,0,0,0,53.11,53.17H445.74a53.14,53.14,0,0,0,53.11-53.17V369.39a110,110,0,0,0,24.74-27.5h9.17A29.21,29.21,0,0,0,562,312.68V258.53A29.21,29.21,0,0,0,532.76,229.32ZM100,283.61A86.07,86.07,0,1,1,186,369.69,86.07,86.07,0,0,1,100,283.61ZM476.48,443.34a46.77,46.77,0,0,1-46.8,46.73H188a46.77,46.77,0,0,1-46.8-46.73V383.26a109.27,109.27,0,1,0,4.48-201.19A46.78,46.78,0,0,1,188,155.29h80.53c.42-1.18,27.56-41.38,27.56-41.38a15,15,0,0,1,24.75,0s27.14,40.2,27.56,41.38h81.33a46.81,46.81,0,0,1,42.42,27,109.27,109.27,0,1,0,4.38,200.77Zm-45.31-73.65a86.08,86.08,0,1,1,86.07-86.08A86.07,86.07,0,0,1,431.17,369.69Z"></path><path class="cls-1" d="M235,283.61a49,49,0,1,0-49,49A49,49,0,0,0,235,283.61Zm-61.62-3a14.27,14.27,0,1,1,14.26-14.27A14.27,14.27,0,0,1,173.42,280.63Z"></path><path class="cls-1" d="M431.17,234.6a49,49,0,1,0,49,49A49,49,0,0,0,431.17,234.6Zm-12.61,46a14.27,14.27,0,1,1,14.26-14.27A14.27,14.27,0,0,1,418.56,280.63Z"></path><path class="cls-2" d="M940,310.5A15.45,15.45,0,0,0,924.56,326v19.33a15.45,15.45,0,1,0,30.89,0V326A15.45,15.45,0,0,0,940,310.5Z"></path></svg> 