<?xml version="1.0" encoding="UTF-8"?> <svg xmlns="http://www.w3.org/2000/svg" id="Слой_1" data-name="Слой 1" viewBox="0 0 1277 632"> <defs> <style>.cls-1{fill:#fff;}.cls-2{fill:#83beff;}.cls-3{fill:#171b4a;}</style> </defs> <title>logo_2</title> <path class="cls-1" d="M653.63,513.75V311.68h72q28.17,0,45.39,13.8t17.22,38.28a50.41,50.41,0,0,1-6.55,25.62A45.76,45.76,0,0,1,763.77,407v.57q15.93,4.56,24.33,17.93a54.61,54.61,0,0,1,8.39,29.6q0,28.74-19.92,43.68t-49.8,14.95Zm36.71-119.54h35.57q11.67,0,18.36-7.25T751,368.32q0-11.1-6.69-18.07t-18.93-7h-35Zm0,88h39.27q13.67,0,21.49-8.12t7.83-21.2q0-12.81-7.83-20.92t-21.49-8.11H690.34Z"></path> <path class="cls-1" d="M1138,513.75V343.27H1071.7V311.68h169v31.59h-66.31V513.75Z"></path> <path class="cls-1" d="M642.16,200.85q0-30.19,19.52-50.31t49.71-20.1q31.18,0,49.81,17.85l-7.25,10a58.78,58.78,0,0,0-19.42-11.08,67.89,67.89,0,0,0-22.75-4q-24.71,0-40.1,16.38t-15.4,41.08q0,25.11,15.5,42.36t40.59,17.26q25.89,0,44.52-18.24l7.84,9.61Q743,273,712,273t-50.4-20.69Q642.17,231.63,642.16,200.85Z"></path> <path class="cls-1" d="M792,270.66V132.8h13.53V258.5h63.93v12.16Z"></path> <path class="cls-1" d="M893.38,270.66V132.8h77.46V145H906.91v50.2h52.36v12.16H906.91V258.5h67.66v12.16Z"></path> <path class="cls-1" d="M987.51,270.66l50.6-137.86h14.51l50.6,137.86H1088.9L1073,226.73h-55.5l-15.69,43.93ZM1021.63,215h47.27l-18.05-50-5.29-18h-.39q-2.94,11.57-5.3,18Z"></path> <path class="cls-1" d="M1127.14,270.66V132.8h13.14l70.4,99.23,11.38,18.63h.39q-1.17-11.37-1.18-18.63V132.8h13.54V270.66h-13.14l-70.41-99.23-11.37-18.63h-.39q1.17,11.37,1.17,18.63v99.23Z"></path> <path class="cls-1" d="M1012.24,327.7l-.13-.12c-.48-.44-.91-.93-1.4-1.37,0,.06-.05.11-.07.16A15.67,15.67,0,0,0,1001,323a15.76,15.76,0,0,0-10.35,27.71l-.16.1A75.41,75.41,0,0,1,1015.74,407a76.23,76.23,0,1,1-127.89-55.74h0A15.78,15.78,0,1,0,866.6,328.1a107.67,107.67,0,1,0,145.64-.4Z"></path> <path class="cls-2" d="M939.51,313.22a15.45,15.45,0,0,0-15.45,15.45V348a15.45,15.45,0,0,0,30.9,0V328.67A15.44,15.44,0,0,0,939.51,313.22Z"></path> <path class="cls-1" d="M276.33,621.18a25.65,25.65,0,1,1,0-51.3H341.2a25.65,25.65,0,1,1,0,51.3Z"></path> <path class="cls-1" d="M341.2,579.38a16.15,16.15,0,0,1,16.15,16.15h0a16.15,16.15,0,0,1-16.15,16.15H276.33a16.16,16.16,0,0,1-16.16-16.15h0a16.16,16.16,0,0,1,16.16-16.15H341.2m0-19H276.33a35.15,35.15,0,1,0,0,70.3H341.2a35.15,35.15,0,1,0,0-70.3Z"></path> <path class="cls-1" d="M246.88,571.84a25.65,25.65,0,1,1,0-51.3H370.64a25.65,25.65,0,1,1,0,51.3Z"></path> <path class="cls-1" d="M370.64,530a16.16,16.16,0,0,1,0,32.31H246.88a16.16,16.16,0,0,1,0-32.31H370.64m0-19H246.88a35.16,35.16,0,0,0,0,70.31H370.64a35.16,35.16,0,0,0,0-70.31Z"></path> <path class="cls-1" d="M171.9,522.51a63.7,63.7,0,0,1-9.65-.74,62.58,62.58,0,0,1-53.09-61.85V374a118.38,118.38,0,0,1-20-22.2H85.49a38.7,38.7,0,0,1-38.65-38.65v-54a38.7,38.7,0,0,1,38.65-38.65h1a118.15,118.15,0,0,1,22.69-26.18v-8.5a62.63,62.63,0,0,1,62.56-62.56h86.11c5.44-8.6,15.88-24.39,22.15-33.85C271,81.48,265.5,70.32,265.5,59c0-23,19.46-42.5,42.5-42.5,22.88,0,41.5,19.07,41.5,42.5,0,12.59-5,23.36-14.07,30.78,2.71,3.92,5.92,8.53,9.07,13.07,7.49,10.76,11.7,16.85,14.13,20.42H445.8a62.63,62.63,0,0,1,62.57,62.56v8.5a118.41,118.41,0,0,1,22.69,26.18h1.4a38.7,38.7,0,0,1,38.65,38.65v54a38.7,38.7,0,0,1-38.65,38.65h-4.05a118.73,118.73,0,0,1-20,22.2v85.88a62.74,62.74,0,0,1-62.75,62.59Z"></path> <path class="cls-1" d="M308,26c17.95,0,32,15,32,33,0,13.15-6.76,22.89-18,28,6.26,9.31,30.9,44.33,31.51,45.77H445.8a53.07,53.07,0,0,1,53.07,53.06v13A109.43,109.43,0,0,1,525.7,230h6.76a29.15,29.15,0,0,1,29.15,29.15v54a29.15,29.15,0,0,1-29.15,29.15h-9.15a109.5,109.5,0,0,1-24.44,27.23v90.35a53.08,53.08,0,0,1-45.05,52.46,54,54,0,0,1-8.2.63H171.9a53.88,53.88,0,0,1-8.19-.63,53.08,53.08,0,0,1-45.05-52.46V369.57a109.34,109.34,0,0,1-24.45-27.23H85.49a29.15,29.15,0,0,1-29.15-29.15v-54A29.15,29.15,0,0,1,85.49,230h6.33a109.46,109.46,0,0,1,26.84-31.21v-13a53.06,53.06,0,0,1,53.06-53.06H263.1c.65-1.55,26.16-40.21,29.9-45.77-9.93-5.36-18-16.15-18-28a33.36,33.36,0,0,1,33-33m0-19a52.34,52.34,0,0,0-52,52,49.68,49.68,0,0,0,11.87,31.53L261,101c-3.6,5.49-6.32,9.64-8.37,12.81H171.72a72.14,72.14,0,0,0-72.06,72.06v4.24a127.62,127.62,0,0,0-18.41,21.12,48.23,48.23,0,0,0-43.91,48v54a48.22,48.22,0,0,0,46.92,48.14,128.32,128.32,0,0,0,15.4,17v81.62A72.24,72.24,0,0,0,171.9,532H445.62a73.33,73.33,0,0,0,11.08-.85,72.08,72.08,0,0,0,61.17-71.24V378.3a128.09,128.09,0,0,0,15.38-17,48.21,48.21,0,0,0,47.36-48.15v-54a48.21,48.21,0,0,0-44.37-48,127.65,127.65,0,0,0-18.37-21.09v-4.24a72.15,72.15,0,0,0-72.07-72.06H363.64c-2.61-3.78-6.24-9-11.34-16.35l-4.53-6.52a46.56,46.56,0,0,0,3.33-4.46A49.79,49.79,0,0,0,359,59c0-28.67-22.88-52-51-52Z"></path> <path class="cls-2" d="M445.8,132.77H333.59l-11.58-18a17,17,0,0,0-28.07,0l-11.58,18H171.72a53.06,53.06,0,0,0-53.06,53.06V459.92c0,29.3,23.75,52.08,53.06,52.08H445.8c29.31,0,50.2-21,51.7-50.58V187.33C497.5,158,475.11,132.77,445.8,132.77Z"></path> <circle class="cls-1" cx="186.44" cy="284.19" r="89.19"></circle> <circle class="cls-1" cx="431.08" cy="284.19" r="87.92"></circle> <path class="cls-3" d="M340.64,579.44h-65a16.19,16.19,0,0,0,0,32.38h65a16.19,16.19,0,1,0,0-32.38Z"></path> <path class="cls-3" d="M370.16,530h-124a16.18,16.18,0,0,0-16.19,16.18h0a16.19,16.19,0,0,0,16.19,16.19H370.16a16.19,16.19,0,0,0,16.18-16.19h0A16.18,16.18,0,0,0,370.16,530Z"></path> <path class="cls-3" d="M386.34,411.21c-40.26,25-63.6,23.15-78.19,23.15-27.39,0-60.87-12.26-78.74-23.63-12-6.33-22.3,4.1-21.69,13.23.59,8.86,7,12.48,16.59,17.22,31.75,15.69,59,22.29,83.93,22.29,23.66,0,47.08-.57,84.5-22.16,8.75-5.05,15.83-8.32,15.83-17.94C408.57,414.49,398.5,403.67,386.34,411.21Z"></path> <path class="cls-3" d="M532.34,229.28h-6.77a109.88,109.88,0,0,0-27.15-31.48V185a53.15,53.15,0,0,0-53.11-53.18H353c-.42-1.19-24.49-37-30.1-45.37a32.54,32.54,0,1,0-30.22-.33c-5.16,7.68-29.9,44.49-30.33,45.7H171A53.15,53.15,0,0,0,117.84,185V197.8A109.69,109.69,0,0,0,90.7,229.28H84.35a29.21,29.21,0,0,0-29.21,29.21v54.16a29.22,29.22,0,0,0,29.21,29.22h8.74a110.24,110.24,0,0,0,24.75,27.5v90.37A53.15,53.15,0,0,0,171,512.92H445.31a53.15,53.15,0,0,0,53.11-53.18V369.37a110,110,0,0,0,24.75-27.5h9.17a29.22,29.22,0,0,0,29.22-29.22V258.49A29.22,29.22,0,0,0,532.34,229.28Zm-432.9,54.3a86.1,86.1,0,1,1,86.1,86.09A86.09,86.09,0,0,1,99.44,283.58ZM476.05,443.34a46.78,46.78,0,0,1-46.81,46.74H187.46a46.78,46.78,0,0,1-46.81-46.74V383.25A109.3,109.3,0,1,0,145.12,182a46.82,46.82,0,0,1,42.34-26.79H268c.42-1.18,27.57-41.4,27.57-41.4a15,15,0,0,1,24.75,0s27.15,40.22,27.57,41.4h81.35a46.8,46.8,0,0,1,42.43,27,109.3,109.3,0,1,0,4.38,200.82Zm-45.32-73.67a86.09,86.09,0,1,1,86.09-86.09A86.09,86.09,0,0,1,430.73,369.67Z"></path> <path class="cls-3" d="M234.56,283.58a49,49,0,1,0-49,49A49,49,0,0,0,234.56,283.58Zm-61.64-3a14.27,14.27,0,1,1,14.26-14.27A14.27,14.27,0,0,1,172.92,280.59Z"></path> <path class="cls-3" d="M430.73,234.56a49,49,0,1,0,49,49A49,49,0,0,0,430.73,234.56Zm-12.62,46a14.27,14.27,0,1,1,14.27-14.27A14.26,14.26,0,0,1,418.11,280.59Z"></path> </svg> 