<?xml version="1.0" encoding="UTF-8"?> <svg xmlns="http://www.w3.org/2000/svg" viewBox="0 0 512 512" width="512" height="512"> <g id="outline"> <path d="M488,411.19V312c0-.027,0-.053,0-.08,0-.136-.012-.272-.021-.409s-.015-.287-.031-.428c0-.025,0-.05-.006-.075l-7.124-56.992A16.02,16.02,0,0,0,472,241.649V216a8,8,0,0,0-8-8h-8V165.408A61.477,61.477,0,0,0,394.592,104H372.748a73.755,73.755,0,0,0-72,57.755l-.706,3.175a14.052,14.052,0,0,1-13.8,11.07H274.583a28.667,28.667,0,0,1-28.355-32.92l8.13-54.2A63.516,63.516,0,0,0,191.345,16h-1.419a61.535,61.535,0,0,0-60.819,52.179L73.164,424H54a38.043,38.043,0,0,0-38,38v26a8,8,0,0,0,8,8H168a8,8,0,0,0,8-8V462a38.043,38.043,0,0,0-38-38H121.362l58.9-350.311a12.373,12.373,0,0,1,24.315,4.52l-9.06,60.4A74.357,74.357,0,0,0,269.054,224h14.8a73,73,0,0,0,71.266-57.167A18.83,18.83,0,0,1,373.612,152h15.446A18.963,18.963,0,0,1,408,170.942V208h-8a8,8,0,0,0-8,8v24H327.062a16.025,16.025,0,0,0-15.876,14.016l-7.124,56.992c0,.025,0,.05-.006.075-.016.141-.023.285-.031.428s-.02.273-.021.409c0,.027,0,.053,0,.08V430.111l-7.155,14.311A7.994,7.994,0,0,0,296,448v32a8,8,0,0,0,8,8s106.709-.032,107.056-.078A55.974,55.974,0,0,0,488,411.19ZM115.269,360h-15.8l5.052-32h15.8ZM160,480H32v-8H160Zm-.832-24H32.832A22.038,22.038,0,0,1,54,440h84A22.038,22.038,0,0,1,159.168,456ZM89.362,424l7.579-48h15.8l-7.579,48Zm33.486-112h-15.8l27.789-176h15.8Zm266.21-176H373.612a34.733,34.733,0,0,0-34.11,27.362A56.664,56.664,0,0,1,283.855,208h-14.8a58.358,58.358,0,0,1-57.712-67.015l9.06-60.4a28.373,28.373,0,0,0-55.757-10.364L153.583,120H137.325l7.6-49.388A45.288,45.288,0,0,1,189.926,32h1.419a47.516,47.516,0,0,1,47.19,54.511l-8.13,54.2A44.667,44.667,0,0,0,274.583,192h11.659a29.958,29.958,0,0,0,29.42-23.6l.705-3.174A57.413,57.413,0,0,1,372.748,120h21.844A45.459,45.459,0,0,1,440,165.408V208H424V170.942A34.982,34.982,0,0,0,389.058,136ZM408,224h48v16H408Zm-8,32h64.938l6,48H440V280a8,8,0,0,0-8-8H400a8,8,0,0,0-8,8v24H321.062l6-48Zm24,64H408V288h16ZM312,449.889l7.155-14.311A7.994,7.994,0,0,0,320,432V320h72v8a8,8,0,0,0,8,8h32a8,8,0,0,0,8-8v-8h32v32H386a34.038,34.038,0,0,0-34,34v86H312ZM368,386a18.021,18.021,0,0,1,18-18h86v26.083A55.957,55.957,0,0,0,394.083,472H368Zm72,94a40,40,0,1,1,40-40A40.045,40.045,0,0,1,440,480Z"></path> <path d="M440,416a24,24,0,1,0,24,24A24.027,24.027,0,0,0,440,416Zm0,32a8,8,0,1,1,8-8A8.009,8.009,0,0,1,440,448Z"></path> </g> </svg> 