<?xml version="1.0" encoding="UTF-8"?> <svg xmlns="http://www.w3.org/2000/svg" id="Слой_2" data-name="Слой 2" viewBox="0 0 2808.41 3254.78"> <defs> <style>.cls-1{fill:#83beff;}.cls-2{fill:#fff;}.cls-3{fill:#171b4a;}</style> </defs> <title>head kavaii</title> <path class="cls-1" d="M2559.79,769.55H1941.63l-64.38-100.37c-37.42-55.12-118.57-55.12-156,0l-64.37,100.37H1036.34c-162.89,0-289.4,126.65-289.4,289.72V2584.4c0,163.08,126.51,295.28,289.4,295.28H2559.79c162.9,0,289.4-132.2,289.4-295.28V1059.27C2849.19,896.2,2722.69,769.55,2559.79,769.55Z" transform="translate(-395.61 -173)"></path> <circle class="cls-2" cx="729.07" cy="1437.87" r="476.34"></circle> <circle class="cls-2" cx="723.52" cy="1432.32" r="482.02"></circle> <circle class="cls-2" cx="2085.73" cy="1437.87" r="476.34"></circle> <circle class="cls-2" cx="2085.32" cy="1435.83" r="484.75"></circle> <path class="cls-3" d="M1978.92,3248.25H1618.33a89.77,89.77,0,1,0,0,179.53h360.59a89.77,89.77,0,0,0,0-179.53Z" transform="translate(-395.61 -173)"></path> <path class="cls-3" d="M2142.58,2974H1454.67a89.77,89.77,0,0,0-89.77,89.76h0a89.77,89.77,0,0,0,89.77,89.77h687.91a89.77,89.77,0,0,0,89.77-89.77h0A89.77,89.77,0,0,0,2142.58,2974Z" transform="translate(-395.61 -173)"></path> <path class="cls-3" d="M2232.32,2315.31c-223.24,138.38-352.69,128.34-433.6,128.34-151.9,0-337.59-68-436.65-131-66.34-35.13-123.67,22.71-120.29,73.36,3.28,49.13,38.91,69.23,92,95.47,176.06,87,327.42,123.62,465.42,123.62,131.24,0,261.12-3.12,468.63-122.86,48.52-28,87.78-46.17,87.78-99.49C2355.61,2333.49,2299.77,2273.5,2232.32,2315.31Z" transform="translate(-395.61 -173)"></path> <path class="cls-3" d="M3042,1306.36h-37.55a609.48,609.48,0,0,0-150.55-174.58V1061C2853.9,898.09,2722,766,2559.34,766h-511.9c-2.35-6.59-135.78-205.24-166.94-251.57a180.46,180.46,0,1,0-167.59-1.84C1684.29,555.2,1547.12,759.35,1544.74,766H1037.91C875.23,766,743.35,898.09,743.35,1061v70.8A609.48,609.48,0,0,0,592.8,1306.36H557.63a162,162,0,0,0-162,162v300.33a162,162,0,0,0,162,162H606.1a610,610,0,0,0,137.25,152.53v501.15c0,162.9,131.88,295,294.56,295H2559.34c162.68,0,294.56-132.05,294.56-295V2083.26a610.19,610.19,0,0,0,137.24-152.53H3042a162,162,0,0,0,162-162V1468.38A162,162,0,0,0,3042,1306.36ZM641.32,1607.49c0-263.67,213.75-477.43,477.43-477.43s477.42,213.76,477.42,477.43-213.75,477.43-477.42,477.43S641.32,1871.17,641.32,1607.49Zm2088.49,886c0,143.13-116.22,259.16-259.59,259.16H1129.41c-143.36,0-259.59-116-259.59-259.16V2160.21a603.23,603.23,0,0,0,248.93,53.41c334.75,0,606.12-271.38,606.12-606.13s-271.37-606.12-606.12-606.12a603.72,603.72,0,0,0-224.12,42.89,259.62,259.62,0,0,1,234.78-148.55h446.67c2.33-6.56,152.86-229.57,152.86-229.57,32.93-48.38,104.35-48.38,137.29,0,0,0,150.52,223,152.86,229.57h451.13a259.61,259.61,0,0,1,235.32,149.74,603.74,603.74,0,0,0-227-44.08c-334.75,0-606.12,271.37-606.12,606.12s271.37,606.13,606.12,606.13a603.24,603.24,0,0,0,251.31-54.52ZM2478.5,2084.92c-263.67,0-477.43-213.75-477.43-477.43s213.76-477.43,477.43-477.43,477.43,213.76,477.43,477.43S2742.18,2084.92,2478.5,2084.92Z" transform="translate(-395.61 -173)"></path> <path class="cls-3" d="M1409.19,1740.63c126.75-93.19-127.53-284.85-284.84-284.85s-409.56,189-284.85,284.85c88.51,68,80-130.71,280.56-130.71C1325,1609.92,1348.08,1785.56,1409.19,1740.63Z" transform="translate(-395.61 -173)"></path> <path class="cls-3" d="M2193.81,1744.63c-126.75-93.19,127.53-284.85,284.84-284.85s409.56,189,284.85,284.85c-88.51,68-80-130.71-280.56-130.71C2278.05,1613.92,2254.92,1789.56,2193.81,1744.63Z" transform="translate(-395.61 -173)"></path> </svg> 