<?xml version="1.0" encoding="UTF-8"?> <!-- Generator: Adobe Illustrator 19.0.0, SVG Export Plug-In . SVG Version: 6.00 Build 0) --> <svg xmlns="http://www.w3.org/2000/svg" xmlns:xlink="http://www.w3.org/1999/xlink" id="Capa_1" x="0px" y="0px" viewBox="0 0 479.915 479.915" style="enable-background:new 0 0 479.915 479.915;" xml:space="preserve"> <g> <g> <path d="M479.724,270.302c-0.029-0.167-0.066-0.333-0.112-0.496c-0.056-0.192-0.064-0.392-0.136-0.584l-64-176 c-1.151-3.161-4.156-5.265-7.52-5.264h-336c-3.364-0.001-6.369,2.103-7.52,5.264l-64,176c-0.072,0.192-0.08,0.392-0.136,0.584 c-0.056,0.192-0.08,0.328-0.112,0.496c-0.224,1.007-0.248,2.048-0.072,3.064c0,0.056,0,0.104,0,0.16l16,80 c0.747,3.738,4.028,6.43,7.84,6.432h8v24c0,4.418,3.582,8,8,8h400c4.418,0,8-3.582,8-8v-24h8c3.802,0.001,7.08-2.675,7.84-6.4 l16-80c0-0.056,0-0.104,0-0.16C479.977,272.371,479.952,271.319,479.724,270.302z M77.556,103.958h324.8l58.176,160h-30.696 l-38.24-122.4c-1.049-3.336-4.143-5.604-7.64-5.6h-288c-3.497-0.004-6.591,2.264-7.64,5.6l-38.24,122.4H19.38L77.556,103.958z M413.076,263.958H66.836l35-112h276.24L413.076,263.958z M431.956,375.958h-384v-16h384V375.958z M449.396,343.958H30.516 l-12.8-64h444.48L449.396,343.958z"></path> </g> </g> <g> </g> <g> </g> <g> </g> <g> </g> <g> </g> <g> </g> <g> </g> <g> </g> <g> </g> <g> </g> <g> </g> <g> </g> <g> </g> <g> </g> <g> </g> </svg> 